<?xml version="1.0" encoding="UTF-8"?>
<svg version="1.1" xmlns="http://www.w3.org/2000/svg" width="300" height="300">
<path d="M0 0 C2.625 1.25 2.625 1.25 4.6875 2.8125 C6.48929213 4.34755578 6.48929213 4.34755578 8.484375 4.68774414 C10.93406611 5.3311792 12.66762194 6.3413357 14.8125 7.68359375 C15.59367187 8.16763672 16.37484375 8.65167969 17.1796875 9.15039062 C18.39011719 9.91125977 18.39011719 9.91125977 19.625 10.6875 C21.22827622 11.68762678 22.8324138 12.68637436 24.4375 13.68359375 C25.14519531 14.12759521 25.85289063 14.57159668 26.58203125 15.02905273 C28.5554057 16.20840809 30.55564792 17.25049132 32.625 18.25 C32.625 18.91 32.625 19.57 32.625 20.25 C33.49125 20.3325 34.3575 20.415 35.25 20.5 C39.13607778 21.36357284 41.51000021 22.80250016 44.625 25.25 C44.625 25.91 44.625 26.57 44.625 27.25 C45.35074219 27.36214844 46.07648438 27.47429687 46.82421875 27.58984375 C49.75063993 28.27961387 51.84787809 29.30510814 54.4375 30.8125 C55.22769531 31.26753906 56.01789063 31.72257812 56.83203125 32.19140625 C57.42371094 32.54074219 58.01539063 32.89007813 58.625 33.25 C58.625 33.91 58.625 34.57 58.625 35.25 C59.46804687 35.32992187 60.31109375 35.40984375 61.1796875 35.4921875 C65.24425418 36.38620784 68.28878706 38.17093211 71.75 40.375 C73.06581315 41.19236181 74.38222872 42.00875455 75.69921875 42.82421875 C76.35325684 43.2320459 77.00729492 43.63987305 77.68115234 44.06005859 C81.5623434 46.43595978 85.55280472 48.62478445 89.52734375 50.83984375 C90.21957031 51.30519531 90.91179687 51.77054688 91.625 52.25 C91.625 52.91 91.625 53.57 91.625 54.25 C92.3675 54.353125 93.11 54.45625 93.875 54.5625 C96.8423986 55.30434965 98.30028579 56.31273816 100.625 58.25 C103.28560444 60.28954907 103.28560444 60.28954907 105.375 60.625 C107.67820138 61.26477816 109.07151745 62.14616858 111.0625 63.4375 C114.31617717 65.58891349 114.31617717 65.58891349 116.8125 64.6796875 C121.50959021 62.29199998 125.97618847 59.53392624 130.47460938 56.79492188 C131.57192383 56.1365332 131.57192383 56.1365332 132.69140625 55.46484375 C133.35084229 55.06386475 134.01027832 54.66288574 134.68969727 54.24975586 C136.625 53.25 136.625 53.25 138.71850586 52.72875977 C141.59433772 52.00657943 143.36372503 50.12520363 145.625 48.25 C148.01938986 46.67320668 149.95549712 45.40753009 152.75 44.75 C155.12446353 44.11680972 155.93396176 43.00867977 157.625 41.25 C159.94930495 39.70046336 161.88327841 38.4122516 164.625 37.8125 C166.79040597 37.34747532 166.79040597 37.34747532 168.71484375 35.5390625 C172.34989956 32.67981055 176.20035107 30.39318534 180.1875 28.0625 C180.94224609 27.61197266 181.69699219 27.16144531 182.47460938 26.69726562 C183.57192383 26.05241211 183.57192383 26.05241211 184.69140625 25.39453125 C185.35084229 25.00628174 186.01027832 24.61803223 186.68969727 24.21801758 C188.625 23.25 188.625 23.25 190.72265625 22.73046875 C193.59422755 22.00520536 195.35747385 20.11995099 197.625 18.25 C199.62201923 16.98250947 201.64394016 15.75350011 203.6875 14.5625 C204.70972656 13.96050781 205.73195312 13.35851562 206.78515625 12.73828125 C209.625 11.25 209.625 11.25 211.68359375 10.79296875 C214.5561212 9.98958582 216.34094605 8.14036858 218.625 6.25 C220.61890664 4.93732296 222.64093868 3.66647172 224.6875 2.4375 C225.70972656 1.81230469 226.73195313 1.18710938 227.78515625 0.54296875 C230.625 -0.75 230.625 -0.75 234.625 0.25 C234.625 46.45 234.625 92.65 234.625 140.25 C230.995 142.23 227.365 144.21 223.625 146.25 C216.82993675 150.22820797 216.82993675 150.22820797 210.3125 154.625 C207.42246575 156.37246257 205.93613441 156.63954522 202.625 156.25 C202.295 157.24 201.965 158.23 201.625 159.25 C199.25 161 199.25 161 196.625 162.25 C193.625 161.25 193.625 161.25 191.625 160.25 C191.295 132.2 190.965 104.15 190.625 75.25 C182.97771766 79.00704703 182.97771766 79.00704703 175.6875 83.1875 C172.2153299 85.31209861 168.70883462 87.31946743 165.125 89.25 C158.67155035 92.73687096 152.25853807 96.31715609 146.3125 100.625 C143.42246575 102.37246257 141.93613441 102.63954522 138.625 102.25 C138.295 103.24 137.965 104.23 137.625 105.25 C135.76953125 106.49609375 135.76953125 106.49609375 133.4375 107.6875 C130.55800707 109.19341548 128.037699 110.66788725 125.375 112.5625 C122.44145025 114.3626328 120.99406576 114.64636068 117.625 114.25 C117.13 115.735 117.13 115.735 116.625 117.25 C112.9102972 116.57941232 110.15411913 114.93417621 106.9375 113 C103.3163372 110.84485947 99.69669175 108.71046678 96 106.6875 C92.6838147 104.85327297 89.39412464 102.9795221 86.125 101.0625 C85.2896875 100.57394531 84.454375 100.08539063 83.59375 99.58203125 C81.625 98.25 81.625 98.25 80.625 96.25 C78.95910709 95.91282099 77.29230759 95.58011255 75.625 95.25 C73.37109375 94.0859375 73.37109375 94.0859375 71.0625 92.625 C70.19625 92.08746094 69.33 91.54992187 68.4375 90.99609375 C67.509375 90.41988281 66.58125 89.84367187 65.625 89.25 C59.45614628 85.59527546 53.26085014 81.99621166 46.953125 78.5859375 C44.76021196 77.32758807 42.62142354 76.00934888 40.47949219 74.66650391 C39.75799988 74.21449615 39.03650757 73.7624884 38.29315186 73.29678345 C37.46741669 72.77862564 37.46741669 72.77862564 36.625 72.25 C36.63974869 73.34802948 36.65449738 74.44605896 36.66969299 75.57736206 C36.80778054 85.90741064 36.94051602 96.23751585 37.0679636 106.56770134 C37.13366448 111.87899539 37.20127428 117.19025106 37.27319336 122.50146484 C37.34248373 127.62367057 37.40682945 132.74591639 37.46769524 137.86822891 C37.49183682 139.82594192 37.51778328 141.7836335 37.54553413 143.74129868 C37.58399327 146.47577308 37.61612948 149.21025218 37.64672852 151.94482422 C37.65967453 152.76049866 37.67262054 153.5761731 37.68595886 154.41656494 C37.73905216 160.02189568 37.73905216 160.02189568 36.625 162.25 C33.14732236 161.59944137 30.66732004 160.19038351 27.6875 158.3125 C24.40799281 156.24950243 21.26169915 154.59668466 17.625 153.25 C17.625 152.59 17.625 151.93 17.625 151.25 C16.84125 151.04375 16.0575 150.8375 15.25 150.625 C10.32486697 148.75684609 6.08306014 146.02657311 1.625 143.25 C0.71878906 142.75371094 -0.18742187 142.25742188 -1.12109375 141.74609375 C-3.375 140.25 -3.375 140.25 -4.375 137.25 C-4.46584396 135.39785544 -4.4969511 133.54255695 -4.49525452 131.68818665 C-4.49662918 130.53132355 -4.49800385 129.37446045 -4.49942017 128.18254089 C-4.49582489 126.91227554 -4.49222961 125.64201019 -4.48852539 124.33325195 C-4.48824334 122.98307294 -4.4884016 121.63289377 -4.4889679 120.28271484 C-4.48925517 116.61564067 -4.48336971 112.94859911 -4.47639394 109.28153253 C-4.47014878 105.44983094 -4.46955568 101.61812862 -4.46836853 97.78642273 C-4.46525865 90.52978372 -4.45704987 83.27315974 -4.44701904 76.01652735 C-4.43584727 67.75543203 -4.43034477 59.494336 -4.42532361 51.233235 C-4.41486698 34.23881463 -4.39727416 17.2444089 -4.375 0.25 C-2.375 -0.75 -2.375 -0.75 0 0 Z " fill="#95BDD8" transform="translate(35.375,82.75)"/>
<path d="M0 0 C2.625 1.25 2.625 1.25 4.6875 2.8125 C6.48929213 4.34755578 6.48929213 4.34755578 8.484375 4.68774414 C10.93406611 5.3311792 12.66762194 6.3413357 14.8125 7.68359375 C15.59367187 8.16763672 16.37484375 8.65167969 17.1796875 9.15039062 C18.39011719 9.91125977 18.39011719 9.91125977 19.625 10.6875 C21.22827622 11.68762678 22.8324138 12.68637436 24.4375 13.68359375 C25.14519531 14.12759521 25.85289063 14.57159668 26.58203125 15.02905273 C28.5554057 16.20840809 30.55564792 17.25049132 32.625 18.25 C32.625 18.91 32.625 19.57 32.625 20.25 C33.49125 20.3325 34.3575 20.415 35.25 20.5 C39.13607778 21.36357284 41.51000021 22.80250016 44.625 25.25 C44.625 25.91 44.625 26.57 44.625 27.25 C45.35074219 27.36214844 46.07648438 27.47429687 46.82421875 27.58984375 C49.75063993 28.27961387 51.84787809 29.30510814 54.4375 30.8125 C55.22769531 31.26753906 56.01789063 31.72257812 56.83203125 32.19140625 C57.42371094 32.54074219 58.01539063 32.89007813 58.625 33.25 C58.625 33.91 58.625 34.57 58.625 35.25 C59.47376709 35.3619873 60.32253418 35.47397461 61.19702148 35.58935547 C66.92979018 36.6941822 72.13945511 38.36784494 76.41876221 42.45178223 C80.9689342 49.23502199 78.58826186 60.44035095 78.0625 68.125 C77.9661507 70.33569011 77.87559507 72.54664081 77.79101562 74.7578125 C77.61133865 78.78611691 77.42200908 82.81221935 77.15014648 86.83544922 C77.09761215 87.64182831 77.04507782 88.4482074 76.99095154 89.27902222 C76.625 91.25 76.625 91.25 74.625 93.25 C71.29533742 92.87532459 68.86282472 91.3201997 66.0625 89.5625 C62.46624131 87.34982395 58.844187 85.24939273 55.125 83.25 C48.80339033 79.83776751 42.60355994 76.23570663 36.625 72.25 C36.63974869 73.34802948 36.65449738 74.44605896 36.66969299 75.57736206 C36.80778054 85.90741064 36.94051602 96.23751585 37.0679636 106.56770134 C37.13366448 111.87899539 37.20127428 117.19025106 37.27319336 122.50146484 C37.34248373 127.62367057 37.40682945 132.74591639 37.46769524 137.86822891 C37.49183682 139.82594192 37.51778328 141.7836335 37.54553413 143.74129868 C37.58399327 146.47577308 37.61612948 149.21025218 37.64672852 151.94482422 C37.65967453 152.76049866 37.67262054 153.5761731 37.68595886 154.41656494 C37.73905216 160.02189568 37.73905216 160.02189568 36.625 162.25 C33.14732236 161.59944137 30.66732004 160.19038351 27.6875 158.3125 C24.40799281 156.24950243 21.26169915 154.59668466 17.625 153.25 C17.625 152.59 17.625 151.93 17.625 151.25 C16.84125 151.04375 16.0575 150.8375 15.25 150.625 C10.32486697 148.75684609 6.08306014 146.02657311 1.625 143.25 C0.71878906 142.75371094 -0.18742187 142.25742188 -1.12109375 141.74609375 C-3.375 140.25 -3.375 140.25 -4.375 137.25 C-4.46584396 135.39785544 -4.4969511 133.54255695 -4.49525452 131.68818665 C-4.49662918 130.53132355 -4.49800385 129.37446045 -4.49942017 128.18254089 C-4.49582489 126.91227554 -4.49222961 125.64201019 -4.48852539 124.33325195 C-4.48824334 122.98307294 -4.4884016 121.63289377 -4.4889679 120.28271484 C-4.48925517 116.61564067 -4.48336971 112.94859911 -4.47639394 109.28153253 C-4.47014878 105.44983094 -4.46955568 101.61812862 -4.46836853 97.78642273 C-4.46525865 90.52978372 -4.45704987 83.27315974 -4.44701904 76.01652735 C-4.43584727 67.75543203 -4.43034477 59.494336 -4.42532361 51.233235 C-4.41486698 34.23881463 -4.39727416 17.2444089 -4.375 0.25 C-2.375 -0.75 -2.375 -0.75 0 0 Z " fill="#95C2E0" transform="translate(35.375,82.75)"/>
<path d="M0 0 C0.99 0.66 1.98 1.32 3 2 C3.99 2.33 4.98 2.66 6 3 C8.37492763 4.26628904 10.67599172 5.6406744 13 7 C13 7.66 13 8.32 13 9 C14.26457031 9.11988281 14.26457031 9.11988281 15.5546875 9.2421875 C19.61925418 10.13620784 22.66378706 11.92093211 26.125 14.125 C27.44081315 14.94236181 28.75722872 15.75875455 30.07421875 16.57421875 C30.72825684 16.9820459 31.38229492 17.38987305 32.05615234 17.81005859 C35.9373434 20.18595978 39.92780472 22.37478445 43.90234375 24.58984375 C44.94068359 25.28787109 44.94068359 25.28787109 46 26 C46 26.66 46 27.32 46 28 C46.7425 28.103125 47.485 28.20625 48.25 28.3125 C51.2173986 29.05434965 52.67528579 30.06273816 55 32 C57.7200497 33.81336647 58.98962244 34.24909444 62 35 C63.38309727 35.70278303 64.74082233 36.45695773 66.07421875 37.25 C66.82380859 37.6934375 67.57339844 38.136875 68.34570312 38.59375 C69.11849609 39.0578125 69.89128906 39.521875 70.6875 40 C71.47189453 40.4640625 72.25628906 40.928125 73.06445312 41.40625 C78.84155117 44.84155117 78.84155117 44.84155117 80 46 C80.04080783 47.99958364 80.04254356 50.00045254 80 52 C79.41992188 52.31453125 78.83984375 52.6290625 78.2421875 52.953125 C74.60801896 54.94412163 71.13196894 56.90609902 67.75 59.3125 C64.81645025 61.1126328 63.36906576 61.39636068 60 61 C59.67 61.99 59.34 62.98 59 64 C57.14453125 65.24609375 57.14453125 65.24609375 54.8125 66.4375 C51.93862678 67.93572775 49.49719281 69.37207732 46.875 71.3125 C43.30624495 73.40720405 41.07212857 73.54817115 37 73 C36.34 72.01 35.68 71.02 35 70 C33.34132394 69.62894392 31.67303786 69.29972191 30 69 C27.74609375 67.8359375 27.74609375 67.8359375 25.4375 66.375 C21.55222967 63.96124673 17.64431407 61.60764708 13.6875 59.3125 C10.87023904 57.67630705 8.06314441 56.0390894 5.29296875 54.32421875 C2.45096846 52.68292727 1.23412588 52.38397602 -2 53 C-3.59241642 54.11807961 -5.1775177 55.24871154 -6.71484375 56.44140625 C-9.65806217 58.44883214 -12.79836662 59.95870569 -16 61.5 C-21.05308546 63.94847726 -25.54099957 66.58459542 -30 70 C-34.19678538 73.0426694 -36.81245655 73.8234196 -42 73 C-46.17934883 70.9457438 -50.06597244 68.48491108 -54 66 C-55.89417119 64.89298439 -57.78986321 63.78856433 -59.6875 62.6875 C-63.87514061 60.24971879 -63.87514061 60.24971879 -65 58 C-66.32 58 -67.64 58 -69 58 C-69 57.34 -69 56.68 -69 56 C-69.9075 55.731875 -70.815 55.46375 -71.75 55.1875 C-74.76173571 54.0870581 -76.74414517 53.25585483 -79 51 C-79 49.68 -79 48.36 -79 47 C-78.01 46.34 -77.02 45.68 -76 45 C-75.52457764 44.51128418 -75.04915527 44.02256836 -74.55932617 43.51904297 C-72.8367631 41.84098012 -71.16407366 40.8370303 -69.05078125 39.6953125 C-68.28443359 39.27636719 -67.51808594 38.85742188 -66.72851562 38.42578125 C-65.93123047 37.99652344 -65.13394531 37.56726562 -64.3125 37.125 C-59.01832331 34.25640716 -53.83298565 31.34275551 -48.81323242 28.01123047 C-46.88528969 26.93602665 -45.13152571 26.52875476 -43 26 C-41.30824337 24.69864875 -39.64295195 23.36244796 -38 22 C-35.60561014 20.42320668 -33.66950288 19.15753009 -30.875 18.5 C-28.50053647 17.86680972 -27.69103824 16.75867977 -26 15 C-23.67569505 13.45046336 -21.74172159 12.1622516 -19 11.5625 C-16.809485 11.08816046 -16.809485 11.08816046 -14.76953125 9.19921875 C-11.86742336 6.89472405 -8.9029388 5.0873936 -5.6875 3.25 C-4.61886719 2.63640625 -3.55023438 2.0228125 -2.44921875 1.390625 C-1.64097656 0.93171875 -0.83273438 0.4728125 0 0 Z " fill="#0063A7" transform="translate(150,13)"/>
<path d="M0 0 C0.99 0.495 0.99 0.495 2 1 C2.25391045 8.01011622 2.42880663 15.01904562 2.54931641 22.03271484 C2.59955531 24.41728009 2.66776266 26.80153803 2.75439453 29.18505859 C2.87596937 32.61632971 2.93245546 36.04352831 2.9765625 39.4765625 C3.02817535 40.53928375 3.07978821 41.602005 3.13296509 42.69692993 C3.13528231 45.7666324 3.02694273 48.10355551 2 51 C-1.01628561 53.77261739 -4.28973332 55.331098 -8 57 C-9.67574648 57.94236633 -11.34398353 58.89837827 -13 59.875 C-16.74213836 62 -16.74213836 62 -19 62 C-19 62.66 -19 63.32 -19 64 C-20.65 64 -22.3 64 -24 64 C-24.495 65.485 -24.495 65.485 -25 67 C-27.03125 68.3515625 -27.03125 68.3515625 -29.5 69.625 C-32.44519119 71.04019652 -32.44519119 71.04019652 -35 73 C-39.92489433 73.46971536 -42.59629173 72.46826111 -46.75 69.875 C-47.78253906 69.23949219 -48.81507813 68.60398437 -49.87890625 67.94921875 C-50.90886719 67.30597656 -51.93882812 66.66273438 -53 66 C-54.89480647 64.89407211 -56.79054906 63.78974552 -58.6875 62.6875 C-62.87514061 60.24971879 -62.87514061 60.24971879 -64 58 C-65.66269593 57.64739379 -67.33019952 57.31726209 -69 57 C-71.421875 55.94921875 -71.421875 55.94921875 -73.75 54.6875 C-74.52859375 54.27886719 -75.3071875 53.87023437 -76.109375 53.44921875 C-78.44104183 51.66192868 -78.49843721 50.83932276 -79 48 C-79.08406811 46.44288926 -79.11780938 44.8826148 -79.11352539 43.32324219 C-79.11341209 41.94226349 -79.11341209 41.94226349 -79.11329651 40.53338623 C-79.10813522 39.54783752 -79.10297394 38.56228882 -79.09765625 37.546875 C-79.0962413 36.53151672 -79.09482635 35.51615845 -79.09336853 34.47003174 C-79.08777516 31.22999108 -79.07522385 27.99001975 -79.0625 24.75 C-79.05748414 22.55208433 -79.05292139 20.35416758 -79.04882812 18.15625 C-79.0378079 12.77080971 -79.02107633 7.38540981 -79 2 C-77.68 1.67 -76.36 1.34 -75 1 C-74.67 1.66 -74.34 2.32 -74 3 C-73.34 3.33 -72.68 3.66 -72 4 C-71.01 4.66 -70.02 5.32 -69 6 C-67.0328678 7.07874992 -65.32081949 7.92799552 -63.12792969 8.42016602 C-59.15967195 9.50146617 -55.76893607 11.85706764 -52.25 13.9375 C-51.45722656 14.39318359 -50.66445312 14.84886719 -49.84765625 15.31835938 C-49.09871094 15.75857422 -48.34976563 16.19878906 -47.578125 16.65234375 C-46.89137695 17.05445068 -46.20462891 17.45655762 -45.49707031 17.87084961 C-44.75602051 18.42977905 -44.75602051 18.42977905 -44 19 C-44 19.66 -44 20.32 -44 21 C-40.15487714 22.28170762 -37.62799987 21.49007138 -34 20 C-31.90267409 18.78308142 -29.89351198 17.49310293 -27.89453125 16.12109375 C-25.92498054 14.95560704 -24.21299717 14.51574087 -22 14 C-21.566875 13.566875 -21.13375 13.13375 -20.6875 12.6875 C-17.12462551 9.12462551 -12.82212721 7.2055318 -8 6 C-6.97803008 5.02246356 -5.98020375 4.0194119 -5 3 C-2.4375 1.25 -2.4375 1.25 0 0 Z " fill="#0060A3" transform="translate(189,217)"/>
<path d="M0 0 C0.66 0.33 1.32 0.66 2 1 C1.01 1.33 0.02 1.66 -1 2 C-4.43008127 27.32042971 -4.43008127 27.32042971 2.35742188 50.45849609 C8.3509302 55.60972144 15.33136327 58.32920317 22.75390625 60.83544922 C27.25529796 62.45034381 31.11168956 64.74908788 35.125 67.3125 C36.04563232 67.84858887 36.04563232 67.84858887 36.98486328 68.39550781 C38.36048925 69.2033569 39.68781528 70.09273037 41 71 C41 71.66 41 72.32 41 73 C40.34 73 39.68 73 39 73 C39.01474869 74.09802948 39.02949738 75.19605896 39.04469299 76.32736206 C39.18278054 86.65741064 39.31551602 96.98751585 39.4429636 107.31770134 C39.50866448 112.62899539 39.57627428 117.94025106 39.64819336 123.25146484 C39.71748373 128.37367057 39.78182945 133.49591639 39.84269524 138.61822891 C39.86683682 140.57594192 39.89278328 142.5336335 39.92053413 144.49129868 C39.95899327 147.22577308 39.99112948 149.96025218 40.02172852 152.69482422 C40.03467453 153.51049866 40.04762054 154.3261731 40.06095886 155.16656494 C40.11405216 160.77189568 40.11405216 160.77189568 39 163 C35.52232236 162.34944137 33.04232004 160.94038351 30.0625 159.0625 C26.78299281 156.99950243 23.63669915 155.34668466 20 154 C20 153.34 20 152.68 20 152 C19.21625 151.79375 18.4325 151.5875 17.625 151.375 C12.69986697 149.50684609 8.45806014 146.77657311 4 144 C3.09378906 143.50371094 2.18757813 143.00742188 1.25390625 142.49609375 C-1 141 -1 141 -2 138 C-2.09084396 136.14785544 -2.1219511 134.29255695 -2.12025452 132.43818665 C-2.12162918 131.28132355 -2.12300385 130.12446045 -2.12442017 128.93254089 C-2.12082489 127.66227554 -2.11722961 126.39201019 -2.11352539 125.08325195 C-2.11324334 123.73307294 -2.1134016 122.38289377 -2.1139679 121.03271484 C-2.11425517 117.36564067 -2.10836971 113.69859911 -2.10139394 110.03153253 C-2.09514878 106.19983094 -2.09455568 102.36812862 -2.09336853 98.53642273 C-2.09025865 91.27978372 -2.08204987 84.02315974 -2.07201904 76.76652735 C-2.06084727 68.50543203 -2.05534477 60.244336 -2.05032361 51.983235 C-2.03986698 34.98881463 -2.02227416 17.9944089 -2 1 C-1.34 0.67 -0.68 0.34 0 0 Z " fill="#005D9E" transform="translate(33,82)"/>
<path d="M0 0 C0.66 0 1.32 0 2 0 C2 46.2 2 92.4 2 140 C-1.63 141.98 -5.26 143.96 -9 146 C-15.79506325 149.97820797 -15.79506325 149.97820797 -22.3125 154.375 C-25.20253425 156.12246257 -26.68886559 156.38954522 -30 156 C-30.33 156.99 -30.66 157.98 -31 159 C-33.375 160.75 -33.375 160.75 -36 162 C-36.99 161.67 -37.98 161.34 -39 161 C-39.33 130.64 -39.66 100.28 -40 69 C-31.09 64.05 -22.18 59.1 -13 54 C-9.04 51.69 -5.08 49.38 -1 47 C-0.34 47 0.32 47 1 47 C0.67 31.49 0.34 15.98 0 0 Z " fill="#034D87" transform="translate(268,83)"/>
<path d="M0 0 C5.1576857 1.41836357 9.79975258 3.67391575 14 7 C14 7.66 14 8.32 14 9 C15.11375 9.1546875 15.11375 9.1546875 16.25 9.3125 C19.2173986 10.05434965 20.67528579 11.06273816 23 13 C25.72789312 14.81859541 26.97772514 15.25709445 30 16 C31.54600372 16.69663946 33.0671262 17.45044311 34.5625 18.25 C35.32691406 18.64703125 36.09132812 19.0440625 36.87890625 19.453125 C39 21 39 21 40.1953125 23.33984375 C42.98054896 27.44535464 46.9733202 29.07165789 51.3125 31.3125 C53.12170106 32.27359724 54.93029163 33.23584452 56.73828125 34.19921875 C57.6298291 34.67020996 58.52137695 35.14120117 59.43994141 35.62646484 C64.11732322 38.13599661 68.67686724 40.84575114 73.25 43.5390625 C76.47934791 45.26693672 76.47934791 45.26693672 80 46 C80.99 45.01 80.99 45.01 82 44 C82 44.99 82 45.98 82 47 C80.0234375 48.46484375 80.0234375 48.46484375 77.375 49.9375 C74.3656044 51.63957001 71.46963244 53.32308605 68.6875 55.375 C65.79746575 57.12246257 64.31113441 57.38954522 61 57 C60.67 57.99 60.34 58.98 60 60 C58.14453125 61.24609375 58.14453125 61.24609375 55.8125 62.4375 C52.93300707 63.94341548 50.412699 65.41788725 47.75 67.3125 C44.81645025 69.1126328 43.36906576 69.39636068 40 69 C39.505 70.485 39.505 70.485 39 72 C35.2852972 71.32941232 32.52911913 69.68417621 29.3125 67.75 C25.6913372 65.59485947 22.07169175 63.46046678 18.375 61.4375 C15.0588147 59.60327297 11.76912464 57.7295221 8.5 55.8125 C7.6646875 55.32394531 6.829375 54.83539063 5.96875 54.33203125 C4 53 4 53 3 51 C0.47266765 50.34444881 0.47266765 50.34444881 -2 50 C-2.33 48.68 -2.66 47.36 -3 46 C-2.34 46 -1.68 46 -1 46 C-1.00333092 45.15768578 -1.00333092 45.15768578 -1.00672913 44.2983551 C-1.02878306 38.47519565 -1.04390705 32.65204799 -1.05493164 26.82885742 C-1.05997308 24.65307127 -1.06680607 22.47728853 -1.07543945 20.30151367 C-1.08751338 17.18146933 -1.09323005 14.06146962 -1.09765625 10.94140625 C-1.10281754 9.96224747 -1.10797882 8.98308868 -1.11329651 7.97425842 C-1.11337204 7.07340012 -1.11344757 6.17254181 -1.11352539 5.24438477 C-1.115746 4.44718521 -1.11796661 3.64998566 -1.12025452 2.82862854 C-1 1 -1 1 0 0 Z " fill="#65A4CF" transform="translate(113,128)"/>
<path d="M0 0 C2.8325479 1.41627395 5.36691729 3.24461153 8 5 C9.9671322 6.07874992 11.67918051 6.92799552 13.87207031 7.42016602 C17.84032805 8.50146617 21.23106393 10.85706764 24.75 12.9375 C25.54277344 13.39318359 26.33554688 13.84886719 27.15234375 14.31835938 C27.90128906 14.75857422 28.65023437 15.19878906 29.421875 15.65234375 C30.10862305 16.05445068 30.79537109 16.45655762 31.50292969 16.87084961 C32.24397949 17.42977905 32.24397949 17.42977905 33 18 C33 18.66 33 19.32 33 20 C36.84512286 21.28170762 39.37200013 20.49007138 43 19 C45.09732591 17.78308142 47.10648802 16.49310293 49.10546875 15.12109375 C51.07501946 13.95560704 52.78700283 13.51574087 55 13 C55.433125 12.566875 55.86625 12.13375 56.3125 11.6875 C59.87537449 8.12462551 64.17787279 6.2055318 69 5 C69.45375 4.484375 69.9075 3.96875 70.375 3.4375 C72 2 72 2 78 2 C78 16.85 78 31.7 78 47 C65.7559341 40.3214186 65.7559341 40.3214186 60.6328125 37.38671875 C59.56289062 36.77892578 58.49296875 36.17113281 57.390625 35.54492188 C55.18743453 34.29179141 52.98696663 33.03386374 50.7890625 31.77148438 C49.726875 31.17013672 48.6646875 30.56878906 47.5703125 29.94921875 C46.61914551 29.40612061 45.66797852 28.86302246 44.68798828 28.3034668 C41.97103881 26.98595606 40.01438728 26.1768638 37 26 C34.3241233 27.02226746 34.3241233 27.02226746 31.68359375 28.71875 C30.67103516 29.32203125 29.65847656 29.9253125 28.61523438 30.546875 C27.04225586 31.51367188 27.04225586 31.51367188 25.4375 32.5 C23.37369792 33.73958333 21.30989583 34.97916667 19.24609375 36.21875 C16.04735213 38.15463145 12.8492278 40.09149706 9.65283203 42.03125 C8.58274902 42.670625 7.51266602 43.31 6.41015625 43.96875 C5.44343994 44.55076172 4.47672363 45.13277344 3.48071289 45.73242188 C1 47 1 47 -2 47 C-2 31.82 -2 16.64 -2 1 C-1.34 0.67 -0.68 0.34 0 0 Z " fill="#2B75B2" transform="translate(112,218)"/>
<path d="M0 0 C0.33 15.18 0.66 30.36 1 46 C-0.32 46.33 -1.64 46.66 -3 47 C-3.66 46.01 -4.32 45.02 -5 44 C-6.65867606 43.62894392 -8.32696214 43.29972191 -10 43 C-12.25390625 41.8359375 -12.25390625 41.8359375 -14.5625 40.375 C-18.44777033 37.96124673 -22.35568593 35.60764708 -26.3125 33.3125 C-29.12976096 31.67630705 -31.93685559 30.0390894 -34.70703125 28.32421875 C-37.54903154 26.68292727 -38.76587412 26.38397602 -42 27 C-43.59241642 28.11807961 -45.1775177 29.24871154 -46.71484375 30.44140625 C-50.22271744 32.833956 -54.05185839 34.56621366 -57.87133789 36.39697266 C-61.14551532 37.99133184 -64.05070611 39.64032087 -66.875 41.9375 C-70 44 -70 44 -78 44 C-78 29.81 -78 15.62 -78 1 C-73.51793136 2.49402288 -70.42085399 3.74287119 -66.48046875 6.08203125 C-65.45759766 6.68466797 -64.43472656 7.28730469 -63.38085938 7.90820312 C-62.32705078 8.53662109 -61.27324219 9.16503906 -60.1875 9.8125 C-57.0808758 11.65111432 -53.97541133 13.48668673 -50.84155273 15.27856445 C-48 17 -48 17 -45.72290039 18.82104492 C-43.37902751 20.57901727 -41.90025755 21.51512812 -39 22 C-33.87391964 20.34677074 -29.55960701 17.57190885 -25.0625 14.6875 C-23.84131607 13.94117591 -22.6180169 13.19830138 -21.39257812 12.45898438 C-19.0161284 11.01729418 -16.65300496 9.55734398 -14.30126953 8.07568359 C-11.27799414 6.17478969 -8.24026129 4.30364331 -5.18359375 2.45703125 C-4.3939624 1.97854736 -3.60433105 1.50006348 -2.79077148 1.00708008 C-1 0 -1 0 0 0 Z " fill="#096BAC" transform="translate(190,39)"/>
<path d="M0 0 C7.95858324 4.3410454 15.89848344 8.70455832 23.8125 13.125 C24.90498047 13.73214844 25.99746094 14.33929688 27.12304688 14.96484375 C38.36156044 21.24418365 38.36156044 21.24418365 42 24 C42 24.66 42 25.32 42 26 C41.34 26 40.68 26 40 26 C40 39.86 40 53.72 40 68 C35.91023993 66.36409597 32.42814993 64.62953169 28.6328125 62.4453125 C27.73609329 61.93108231 27.73609329 61.93108231 26.82125854 61.40646362 C24.92073799 60.31568509 23.02283491 59.22044325 21.125 58.125 C19.85824558 57.39683495 18.59131999 56.66896761 17.32421875 55.94140625 C14.97695364 54.59314977 12.630912 53.2428495 10.28564453 51.89111328 C6.86126496 49.92014849 3.430503 47.96028743 0 46 C0 30.82 0 15.64 0 0 Z " fill="#0A73B9" transform="translate(32,129)"/>
<path d="M0 0 C0 29.7 0 59.4 0 90 C-0.33 90 -0.66 90 -1 90 C-1.33 75.48 -1.66 60.96 -2 46 C-17.43790377 54.92585047 -17.43790377 54.92585047 -32.796875 63.98242188 C-37.89236808 67 -37.89236808 67 -39 67 C-39 52.48 -39 37.96 -39 23 C-39.66 22.67 -40.32 22.34 -41 22 C-40.24493164 21.58226318 -39.48986328 21.16452637 -38.71191406 20.73413086 C-35.84851809 19.14911477 -32.98581395 17.56286212 -30.12353516 15.97583008 C-28.89626129 15.29566384 -27.6687316 14.61595895 -26.44091797 13.93676758 C-24.65260501 12.94741016 -22.86512702 11.95656693 -21.078125 10.96484375 C-20.48874146 10.63801605 -19.89935791 10.31118835 -19.29211426 9.97445679 C-14.24326064 7.16230874 -9.27310621 4.2290232 -4.31933594 1.25219727 C-2 0 -2 0 0 0 Z " fill="#0974BA" transform="translate(269,130)"/>
<path d="M0 0 C2.475 0.99 2.475 0.99 5 2 C5 2.66 5 3.32 5 4 C5.7425 4.103125 6.485 4.20625 7.25 4.3125 C10.2173986 5.05434965 11.67528579 6.06273816 14 8 C16.7200497 9.81336647 17.98962244 10.24909444 21 11 C22.38309727 11.70278303 23.74082233 12.45695773 25.07421875 13.25 C25.82380859 13.6934375 26.57339844 14.136875 27.34570312 14.59375 C28.11849609 15.0578125 28.89128906 15.521875 29.6875 16 C30.47189453 16.4640625 31.25628906 16.928125 32.06445312 17.40625 C37.84155117 20.84155117 37.84155117 20.84155117 39 22 C39.04080783 23.99958364 39.04254356 26.00045254 39 28 C38.41992188 28.31453125 37.83984375 28.6290625 37.2421875 28.953125 C33.60801896 30.94412163 30.13196894 32.90609902 26.75 35.3125 C23.81645025 37.1126328 22.36906576 37.39636068 19 37 C18.67 37.99 18.34 38.98 18 40 C16.14453125 41.24609375 16.14453125 41.24609375 13.8125 42.4375 C10.93599049 43.94206539 8.24908843 45.46476938 5.625 47.375 C4.75875 47.91125 3.8925 48.4475 3 49 C0 48 0 48 -1 47 C-1.09804125 45.5985474 -1.12798179 44.19223055 -1.12939453 42.78735352 C-1.13254669 41.89295059 -1.13569885 40.99854767 -1.13894653 40.07704163 C-1.1369223 39.10415695 -1.13489807 38.13127228 -1.1328125 37.12890625 C-1.13376923 36.13624252 -1.13472595 35.1435788 -1.13571167 34.12083435 C-1.13639366 32.01667213 -1.13453806 29.91250782 -1.13037109 27.80834961 C-1.12502874 24.5798674 -1.13031255 21.35152469 -1.13671875 18.12304688 C-1.13605786 16.08333302 -1.13477648 14.04361926 -1.1328125 12.00390625 C-1.13483673 11.03304581 -1.13686096 10.06218536 -1.13894653 9.06190491 C-1.13579437 8.16434982 -1.13264221 7.26679474 -1.12939453 6.34204102 C-1.12859894 5.55007828 -1.12780334 4.75811554 -1.12698364 3.94215393 C-1 2 -1 2 0 0 Z " fill="#286FA9" transform="translate(191,37)"/>
<path d="M0 0 C1.32 0.33 2.64 0.66 4 1 C4 15.85 4 30.7 4 46 C-5.83650616 44.90705487 -5.83650616 44.90705487 -10.1640625 41.40234375 C-12.96357701 39.26399118 -16.06157641 37.73575601 -19.1796875 36.11328125 C-21 35 -21 35 -22 33 C-23.32 33 -24.64 33 -26 33 C-26 32.34 -26 31.68 -26 31 C-26.9075 30.731875 -27.815 30.46375 -28.75 30.1875 C-31.76173571 29.0870581 -33.74414517 28.25585483 -36 26 C-36 24.68 -36 23.36 -36 22 C-35.01 21.34 -34.02 20.68 -33 20 C-32.52457764 19.51128418 -32.04915527 19.02256836 -31.55932617 18.51904297 C-29.8367631 16.84098012 -28.16407366 15.8370303 -26.05078125 14.6953125 C-25.28443359 14.27636719 -24.51808594 13.85742188 -23.72851562 13.42578125 C-22.53258789 12.78189453 -22.53258789 12.78189453 -21.3125 12.125 C-16.01832331 9.25640716 -10.83298565 6.34275551 -5.81323242 3.01123047 C-3.88960144 1.93843129 -2.15041731 1.43702125 0 1 C0 0.67 0 0.34 0 0 Z " fill="#2970A9" transform="translate(107,38)"/>
<path d="M0 0 C0.0505963 6.37203593 0.08568957 12.7440203 0.10986328 19.11621094 C0.11993789 21.28517594 0.13359798 23.45412731 0.15087891 25.62304688 C0.17506323 28.73571126 0.18646832 31.84819651 0.1953125 34.9609375 C0.20563507 35.934935 0.21595764 36.9089325 0.22659302 37.91244507 C0.22681961 39.26361923 0.22681961 39.26361923 0.22705078 40.64208984 C0.231492 41.43706879 0.23593323 42.23204773 0.24050903 43.05111694 C0 45 0 45 -2 47 C-5.32966258 46.62532459 -7.76217528 45.0701997 -10.5625 43.3125 C-14.15875869 41.09982395 -17.780813 38.99939273 -21.5 37 C-24.25 35.5 -24.25 35.5 -27 34 C-27.928125 33.505 -28.85625 33.01 -29.8125 32.5 C-30.699375 32.005 -31.58625 31.51 -32.5 31 C-33.69109375 30.3503125 -33.69109375 30.3503125 -34.90625 29.6875 C-37.60066178 27.51588454 -38.53502763 25.09713132 -40 22 C-39.20416504 21.5467334 -38.40833008 21.0934668 -37.58837891 20.62646484 C-34.58721093 18.91643115 -31.58663258 17.20537143 -28.58642578 15.49365234 C-27.29694081 14.75822539 -26.00723366 14.02318784 -24.71728516 13.28857422 C-22.84476598 12.22209671 -20.9729739 11.1543576 -19.1015625 10.0859375 C-18.49185608 9.73819275 -17.88214966 9.390448 -17.25396729 9.03216553 C-12.73781085 6.4468748 -8.28586303 3.76857887 -3.86865234 1.01806641 C-2 0 -2 0 0 0 Z " fill="#A0C6E1" transform="translate(112,129)"/>
<path d="M0 0 C0.16801189 6.51431814 0.32794171 13.02879826 0.48217773 19.54345703 C0.53564069 21.76095096 0.59097328 23.97840062 0.64819336 26.19580078 C0.72998452 29.37783255 0.8051129 32.55996149 0.87890625 35.7421875 C0.90594131 36.73805878 0.93297638 37.73393005 0.96083069 38.75997925 C0.98092697 39.68078278 1.00102325 40.6015863 1.02172852 41.55029297 C1.04171402 42.3630368 1.06169952 43.17578064 1.08229065 44.01315308 C1 46 1 46 0 48 C-3.47767764 47.34944137 -5.95767996 45.94038351 -8.9375 44.0625 C-12.21700719 41.99950243 -15.36330085 40.34668466 -19 39 C-19 38.34 -19 37.68 -19 37 C-19.78375 36.79375 -20.5675 36.5875 -21.375 36.375 C-26.30013303 34.50684609 -30.54193986 31.77657311 -35 29 C-36.39025391 28.25556641 -36.39025391 28.25556641 -37.80859375 27.49609375 C-38.53175781 27.00238281 -39.25492188 26.50867188 -40 26 C-40 25.01 -40 24.02 -40 23 C-39.34 23 -38.68 23 -38 23 C-38 22.34 -38 21.68 -38 21 C-37.4831665 20.71914551 -36.96633301 20.43829102 -36.43383789 20.14892578 C-26.22970395 14.59450596 -16.08648551 8.9701411 -6.11938477 2.99853516 C-1.09717454 0 -1.09717454 0 0 0 Z " fill="#004F8C" transform="translate(72,197)"/>
<path d="M0 0 C0.66 0.66 1.32 1.32 2 2 C3.3321338 2.33809528 4.66563282 2.67082967 6 3 C7.42392903 3.76080147 8.81895424 4.57716205 10.1875 5.43359375 C10.96867187 5.91763672 11.74984375 6.40167969 12.5546875 6.90039062 C13.76511719 7.66125977 13.76511719 7.66125977 15 8.4375 C16.60327622 9.43762678 18.2074138 10.43637436 19.8125 11.43359375 C20.52019531 11.87759521 21.22789063 12.32159668 21.95703125 12.77905273 C23.9304057 13.95840809 25.93064792 15.00049132 28 16 C28 16.66 28 17.32 28 18 C28.86625 18.0825 29.7325 18.165 30.625 18.25 C34.47734858 19.10607746 36.848219 20.67368546 40 23 C39.67 23.66 39.34 24.32 39 25 C37.35 25 35.7 25 34 25 C33.34 23.68 32.68 22.36 32 21 C31.04480469 21.60521484 31.04480469 21.60521484 30.0703125 22.22265625 C21.9000838 27.32634023 13.5894644 32.17982419 5.25 37 C4.65544006 37.34459259 4.06088013 37.68918518 3.44830322 38.04421997 C1.74298555 39.03191567 0.03559601 40.01603154 -1.671875 41 C-2.6731543 41.5775 -3.67443359 42.155 -4.70605469 42.75 C-7 44 -7 44 -8 44 C-8 29.15 -8 14.3 -8 -1 C-4.34765818 -2.21744727 -3.37046678 -1.64202228 0 0 Z " fill="#67A7D3" transform="translate(40,85)"/>
<path d="M0 0 C0.33 0 0.66 0 1 0 C1.33 14.19 1.66 28.38 2 43 C17.92034959 33.96436797 17.92034959 33.96436797 33.64282227 24.59204102 C37.89992116 22 37.89992116 22 39 22 C39 36.52 39 51.04 39 66 C35.02281253 64.40912501 31.67578294 62.76344489 28 60.62890625 C26.865625 59.97212891 25.73125 59.31535156 24.5625 58.63867188 C23.37497505 57.9466574 22.18747526 57.25459973 21 56.5625 C19.81267268 55.87405107 18.62517417 55.18589727 17.4375 54.49804688 C12.6058982 51.69516879 7.7898743 48.87392458 3 46 C2.67 60.52 2.34 75.04 2 90 C1.34 90 0.68 90 0 90 C0 60.3 0 30.6 0 0 Z " fill="#0064AA" transform="translate(229,153)"/>
<path d="M0 0 C2 1 2 1 3 2 C3.09295815 3.44289787 3.11746513 4.89029785 3.11352539 6.33618164 C3.11344986 7.2570607 3.11337433 8.17793976 3.11329651 9.12672424 C3.10813522 10.12775681 3.10297394 11.12878937 3.09765625 12.16015625 C3.0962413 13.17975937 3.09482635 14.19936249 3.09336853 15.24986267 C3.08775097 18.52077107 3.0751955 21.79161213 3.0625 25.0625 C3.05748726 27.27408756 3.05292396 29.48567618 3.04882812 31.69726562 C3.03777584 37.13153357 3.02102063 42.56576197 3 48 C2.34 48 1.68 48 1 48 C1 47.01 1 46.02 1 45 C0.12674072 44.73501709 -0.74651855 44.47003418 -1.64624023 44.19702148 C-4.93141558 43.0244791 -7.66244202 41.61962705 -10.66015625 39.84765625 C-11.70107422 39.23599609 -12.74199219 38.62433594 -13.81445312 37.99414062 C-14.88630859 37.35669922 -15.95816406 36.71925781 -17.0625 36.0625 C-18.13822266 35.42892578 -19.21394531 34.79535156 -20.32226562 34.14257812 C-24.12486951 31.90062134 -27.92219755 29.65089019 -31.70092773 27.36889648 C-33.76296186 26.14113548 -35.8387511 25.04060132 -38 24 C-38 23.34 -38 22.68 -38 22 C-36.50292969 20.87084961 -36.50292969 20.87084961 -34.421875 19.65234375 C-33.67292969 19.21212891 -32.92398438 18.77191406 -32.15234375 18.31835938 C-31.35957031 17.86267578 -30.56679687 17.40699219 -29.75 16.9375 C-28.97269531 16.47794922 -28.19539062 16.01839844 -27.39453125 15.54492188 C-21.53094538 12.1320142 -21.53094538 12.1320142 -18.89086914 11.47558594 C-16.02430256 10.7545954 -14.26238851 8.86688948 -12 7 C-9.96242767 5.68957159 -7.89894225 4.41863052 -5.8125 3.1875 C-4.76707031 2.56230469 -3.72164063 1.93710938 -2.64453125 1.29296875 C-1.33548828 0.65294922 -1.33548828 0.65294922 0 0 Z " fill="#69AAD6" transform="translate(266,82)"/>
<path d="M0 0 C0 14.85 0 29.7 0 45 C-16.16466346 36.91766827 -16.16466346 36.91766827 -23 32.8125 C-23.69738281 32.40064453 -24.39476562 31.98878906 -25.11328125 31.56445312 C-26.46107307 30.7636465 -27.80386977 29.95435067 -29.140625 29.13525391 C-30.89007271 28.06711685 -32.66317658 27.03800354 -34.4375 26.01171875 C-37.45031332 23.64647659 -37.47773574 22.64872121 -38 19 C-34.75509618 17.01238467 -31.50325563 15.03641061 -28.25 13.0625 C-27.32960937 12.49853516 -26.40921875 11.93457031 -25.4609375 11.35351562 C-24.57148438 10.81533203 -23.68203125 10.27714844 -22.765625 9.72265625 C-21.94868164 9.22515869 -21.13173828 8.72766113 -20.29003906 8.21508789 C-18.14922605 7.0791789 -16.33397456 6.56259971 -14 6 C-12.30824337 4.69864875 -10.64295195 3.36244796 -9 2 C-4.56050955 -1.14012739 -4.56050955 -1.14012739 0 0 Z " fill="#7DB3D9" transform="translate(190,129)"/>
<path d="M0 0 C5.1576857 1.41836357 9.79975258 3.67391575 14 7 C14 7.66 14 8.32 14 9 C15.11375 9.1546875 15.11375 9.1546875 16.25 9.3125 C19.2173986 10.05434965 20.67528579 11.06273816 23 13 C25.68179438 15.04145207 25.68179438 15.04145207 27.875 15.4375 C30.69395256 16.18369333 32.65090609 17.2690887 35 19 C36.1484375 21.609375 36.1484375 21.609375 37 24 C30.31598375 28.61935434 23.41290404 32.80035222 16.37744141 36.86132812 C14.60303301 37.88770646 12.8347578 38.92416657 11.06640625 39.9609375 C9.38224609 40.93546875 9.38224609 40.93546875 7.6640625 41.9296875 C6.64779785 42.51991699 5.6315332 43.11014648 4.58447266 43.71826172 C2 45 2 45 -1 45 C-1.02527124 38.75204325 -1.04283344 32.50409959 -1.05493164 26.25610352 C-1.05997298 24.12881986 -1.06680591 22.00153969 -1.07543945 19.87426758 C-1.08751379 16.82372174 -1.09323014 13.77322155 -1.09765625 10.72265625 C-1.10281754 9.76537125 -1.10797882 8.80808624 -1.11329651 7.8217926 C-1.11337204 6.94095505 -1.11344757 6.06011749 -1.11352539 5.15258789 C-1.115746 4.37315323 -1.11796661 3.59371857 -1.12025452 2.79066467 C-1 1 -1 1 0 0 Z " fill="#7DB4DA" transform="translate(113,128)"/>
<path d="M0 0 C0.66 0.33 1.32 0.66 2 1 C2 15.52 2 30.04 2 45 C1.01 45.495 1.01 45.495 0 46 C-2.63867188 44.73999023 -2.63867188 44.73999023 -5.96875 42.80859375 C-6.56369263 42.46627213 -7.15863525 42.1239505 -7.77160645 41.77125549 C-9.6855054 40.66747605 -11.59267469 39.55259243 -13.5 38.4375 C-14.75479401 37.71217338 -16.00999816 36.98755581 -17.265625 36.26367188 C-19.70959257 34.85225095 -22.14818835 33.43222526 -24.58203125 32.00341797 C-26.76081861 30.72633732 -28.94518569 29.45869581 -31.13671875 28.20361328 C-32.05066406 27.67364746 -32.96460938 27.14368164 -33.90625 26.59765625 C-34.70353516 26.14011963 -35.50082031 25.68258301 -36.32226562 25.21118164 C-36.87591797 24.8114917 -37.42957031 24.41180176 -38 24 C-38 23.34 -38 22.68 -38 22 C-37.20416504 21.5467334 -36.40833008 21.0934668 -35.58837891 20.62646484 C-32.58721093 18.91643115 -29.58663258 17.20537143 -26.58642578 15.49365234 C-25.29694081 14.75822539 -24.00723366 14.02318784 -22.71728516 13.28857422 C-20.84476625 12.22209686 -18.97307954 11.15417184 -17.1015625 10.0859375 C-16.49185608 9.73891785 -15.88214966 9.39189819 -15.25396729 9.03436279 C-10.71915002 6.44266759 -6.27229656 3.72857102 -1.86865234 0.92041016 C-0.94366943 0.46480713 -0.94366943 0.46480713 0 0 Z " fill="#85BFE7" transform="translate(71,106)"/>
<path d="M0 0 C8.01455748 4.37157681 16.02051307 8.75287411 24 13.1875 C25.67642578 14.11079102 25.67642578 14.11079102 27.38671875 15.05273438 C28.45535156 15.64763672 29.52398437 16.24253906 30.625 16.85546875 C31.58664063 17.38809326 32.54828125 17.92071777 33.5390625 18.46948242 C35.71133255 19.82047061 37.30591765 21.10303992 39 23 C32.53200936 27.65241432 25.65845421 31.48076417 18.68408203 35.30371094 C13.61885286 38.08350024 8.64340748 40.96369182 3.75 44.0390625 C2 45 2 45 0 45 C0 30.15 0 15.3 0 0 Z " fill="#2F7FC1" transform="translate(32,129)"/>
<path d="M0 0 C0 14.52 0 29.04 0 44 C-18.34459459 34.8277027 -18.34459459 34.8277027 -27.25 29.625 C-29.02551995 28.5954539 -30.8015415 27.56677224 -32.578125 26.5390625 C-33.33512695 26.09771973 -34.09212891 25.65637695 -34.87207031 25.20166016 C-36.88558624 24.06461043 -38.92230699 23.01412608 -41 22 C-40.24493164 21.58226318 -39.48986328 21.16452637 -38.71191406 20.73413086 C-35.84851809 19.14911477 -32.98581395 17.56286212 -30.12353516 15.97583008 C-28.89626129 15.29566384 -27.6687316 14.61595895 -26.44091797 13.93676758 C-24.65260501 12.94741016 -22.86512702 11.95656693 -21.078125 10.96484375 C-20.48874146 10.63801605 -19.89935791 10.31118835 -19.29211426 9.97445679 C-14.24326064 7.16230874 -9.27310621 4.2290232 -4.31933594 1.25219727 C-2 0 -2 0 0 0 Z " fill="#2F80C2" transform="translate(269,130)"/>
<path d="M0 0 C3.83721451 1.5348858 7.1394497 3.1036957 10.7109375 5.1171875 C12.33128906 6.02791016 12.33128906 6.02791016 13.984375 6.95703125 C15.10328125 7.58996094 16.2221875 8.22289063 17.375 8.875 C18.48617187 9.50019531 19.59734375 10.12539062 20.7421875 10.76953125 C26.17241935 13.82726895 31.59395594 16.89970384 37 20 C37 21.32 37 22.64 37 24 C35.94256592 24.589021 35.94256592 24.589021 34.86376953 25.18994141 C31.6165818 26.99996267 28.37078565 28.81246577 25.125 30.625 C24.01640625 31.24246094 22.9078125 31.85992187 21.765625 32.49609375 C15.73980639 35.86346297 9.77966965 39.2945022 3.92138672 42.94677734 C2 44 2 44 0 44 C0 29.48 0 14.96 0 0 Z " fill="#85BFE7" transform="translate(230,107)"/>
<path d="M0 0 C0.33 0 0.66 0 1 0 C1 45.21 1 90.42 1 137 C0.67 137 0.34 137 0 137 C0 91.79 0 46.58 0 0 Z " fill="#000203" transform="translate(271,83)"/>
<path d="M0 0 C0.33 0 0.66 0 1 0 C1 44.88 1 89.76 1 136 C0.67 136 0.34 136 0 136 C0 91.12 0 46.24 0 0 Z " fill="#000001" transform="translate(29,84)"/>
<path d="M0 0 C0.33 0 0.66 0 1 0 C1 15.51 1 31.02 1 47 C0.67 47 0.34 47 0 47 C0 31.49 0 15.98 0 0 Z " fill="#000102" transform="translate(192,219)"/>
<path d="M0 0 C0.33 0 0.66 0 1 0 C1 14.85 1 29.7 1 45 C0.67 45 0.34 45 0 45 C0 30.15 0 15.3 0 0 Z " fill="#000001" transform="translate(108,220)"/>
<path d="M0 0 C0.66 0.33 1.32 0.66 2 1 C0.63016497 4.16115776 0.0109362 4.9927092 -3 7 C-5.1875 6.625 -5.1875 6.625 -7 6 C-7 5.34 -7 4.68 -7 4 C-1.7265625 0.77734375 -1.7265625 0.77734375 0 0 Z " fill="#2F4B5D" transform="translate(235,100)"/>
<path d="M0 0 C3 2 3 2 6 4 C2.62182575 4.84454356 0.32534757 5.10844919 -3 4 C-2.67 3.01 -2.34 2.02 -2 1 C-1.34 0.67 -0.68 0.34 0 0 Z " fill="#002641" transform="translate(150,13)"/>
<path d="M0 0 C0.66 0.33 1.32 0.66 2 1 C1.625 2.9375 1.625 2.9375 1 5 C0.01 5.495 0.01 5.495 -1 6 C-1.66 5.34 -2.32 4.68 -3 4 C-2.67 3.01 -2.34 2.02 -2 1 C-1.34 0.67 -0.68 0.34 0 0 Z " fill="#4C6472" transform="translate(193,124)"/>
<path d="M0 0 C2.625 0.9375 2.625 0.9375 5 2 C4.67 2.66 4.34 3.32 4 4 C2.35 4 0.7 4 -1 4 C-1.33 3.01 -1.66 2.02 -2 1 C-1.34 0.67 -0.68 0.34 0 0 Z " fill="#4C6472" transform="translate(75,106)"/>
<path d="M0 0 C2 1 2 1 2 1 Z " fill="#000101" transform="translate(145,237)"/>
<path d="M0 0 C2 1 2 1 2 1 Z " fill="#000001" transform="translate(165,231)"/>
<path d="M0 0 C2 1 2 1 2 1 Z " fill="#000000" transform="translate(124,225)"/>
<path d="M0 0 C2 1 2 1 2 1 Z " fill="#000101" transform="translate(179,223)"/>
<path d="M0 0 C2 1 2 1 2 1 Z " fill="#000001" transform="translate(117,221)"/>
<path d="M0 0 C2 1 2 1 2 1 Z " fill="#000101" transform="translate(127,136)"/>
<path d="M0 0 C2 1 2 1 2 1 Z " fill="#000000" transform="translate(174,135)"/>
<path d="M0 0 C2 1 2 1 2 1 Z " fill="#010102" transform="translate(188,127)"/>
<path d="M0 0 C2 1 2 1 2 1 Z " fill="#010102" transform="translate(200,120)"/>
<path d="M0 0 C2 1 2 1 2 1 Z " fill="#000101" transform="translate(94,117)"/>
<path d="M0 0 C2 1 2 1 2 1 Z " fill="#010102" transform="translate(80,109)"/>
<path d="M0 0 C2 1 2 1 2 1 Z " fill="#000000" transform="translate(68,102)"/>
<path d="M0 0 C2 1 2 1 2 1 Z " fill="#010101" transform="translate(268,81)"/>
<path d="M0 0 C2 1 2 1 2 1 Z " fill="#000001" transform="translate(72,58)"/>
<path d="M0 0 C2 1 2 1 2 1 Z " fill="#000001" transform="translate(196,40)"/>
<path d="M0 0 C2 1 2 1 2 1 Z " fill="#000000" transform="translate(105,39)"/>
<path d="M0 0 C2 1 2 1 2 1 Z " fill="#000101" transform="translate(119,31)"/>
<path d="M0 0 C2 1 2 1 2 1 Z " fill="#000101" transform="translate(131,24)"/>
<path d="M0 0 C2 1 2 1 2 1 Z " fill="#000001" transform="translate(163,21)"/>
<path d="" fill="#000102" transform="translate(0,0)"/>
<path d="" fill="#000102" transform="translate(0,0)"/>
<path d="" fill="#000000" transform="translate(0,0)"/>
<path d="" fill="#000101" transform="translate(0,0)"/>
<path d="" fill="#010102" transform="translate(0,0)"/>
<path d="" fill="#000101" transform="translate(0,0)"/>
<path d="" fill="#000000" transform="translate(0,0)"/>
<path d="" fill="#000102" transform="translate(0,0)"/>
<path d="" fill="#010202" transform="translate(0,0)"/>
<path d="" fill="#010202" transform="translate(0,0)"/>
<path d="" fill="#010202" transform="translate(0,0)"/>
<path d="" fill="#010202" transform="translate(0,0)"/>
<path d="" fill="#010202" transform="translate(0,0)"/>
<path d="" fill="#010202" transform="translate(0,0)"/>
<path d="" fill="#010202" transform="translate(0,0)"/>
<path d="" fill="#010202" transform="translate(0,0)"/>
<path d="" fill="#010202" transform="translate(0,0)"/>
<path d="" fill="#000101" transform="translate(0,0)"/>
<path d="" fill="#000101" transform="translate(0,0)"/>
<path d="" fill="#000102" transform="translate(0,0)"/>
<path d="" fill="#020203" transform="translate(0,0)"/>
<path d="" fill="#000000" transform="translate(0,0)"/>
<path d="" fill="#000101" transform="translate(0,0)"/>
<path d="" fill="#000000" transform="translate(0,0)"/>
<path d="" fill="#010203" transform="translate(0,0)"/>
<path d="" fill="#010102" transform="translate(0,0)"/>
<path d="" fill="#000102" transform="translate(0,0)"/>
<path d="" fill="#000102" transform="translate(0,0)"/>
</svg>
